HIERARCHY
ROOT Hips
{
 OFFSET 0.000000 0.000000 0.000000
 CHANNELS 6 Xposition Yposition Zposition Yrotation Xrotation Zrotation
 JOINT Chest
 {
  OFFSET 0.000000 9.581000 -0.001100
  CHANNELS 3 Yrotation Xrotation Zrotation
  JOINT Chest2
  {
   OFFSET 0.000000 9.561100 0.002200
   CHANNELS 3 Yrotation Xrotation Zrotation
   JOINT Chest3
   {
    OFFSET 0.000000 9.521100 0.000000
    CHANNELS 3 Yrotation Xrotation Zrotation
    JOINT Chest4
    {
     OFFSET 0.000000 9.511400 0.000000
     CHANNELS 3 Yrotation Xrotation Zrotation
     JOINT Neck
     {
      OFFSET 0.000000 14.375100 0.000000
      CHANNELS 3 Yrotation Xrotation Zrotation
      JOINT Head
      {
       OFFSET 0.000000 8.901200 0.004600
       CHANNELS 3 Yrotation Xrotation Zrotation
       End Site
       {
        OFFSET 0.000000 16.962200 0.002400
       }
      }
     }
     JOINT RightCollar
     {
      OFFSET -2.920100 9.518800 0.000000
      CHANNELS 3 Yrotation Xrotation Zrotation
      JOINT RightShoulder
      {
       OFFSET -13.664500 0.000000 0.000000
       CHANNELS 3 Yrotation Xrotation Zrotation
       JOINT RightElbow
       {
        OFFSET 0.000000 -29.999200 0.000000
        CHANNELS 3 Yrotation Xrotation Zrotation
        JOINT RightWrist
        {
         OFFSET 0.000000 -24.253600 0.000000
         CHANNELS 3 Yrotation Xrotation Zrotation
         End Site
         {
          OFFSET 0.000000 -17.918900 0.000000
         }
        }
       }
      }
     }
     JOINT LeftCollar
     {
      OFFSET 2.920100 9.518800 0.000000
      CHANNELS 3 Yrotation Xrotation Zrotation
      JOINT LeftShoulder
      {
       OFFSET 13.664500 0.000000 0.000000
       CHANNELS 3 Yrotation Xrotation Zrotation
       JOINT LeftElbow
       {
        OFFSET 0.000000 -29.999200 0.000000
        CHANNELS 3 Yrotation Xrotation Zrotation
        JOINT LeftWrist
        {
         OFFSET 0.000000 -24.253600 0.000000
         CHANNELS 3 Yrotation Xrotation Zrotation
         End Site
         {
          OFFSET 0.000000 -17.918900 0.000000
         }
        }
       }
      }
     }
    }
   }
  }
 }
 JOINT RightHip
 {
  OFFSET -7.797300 0.005300 0.000500
  CHANNELS 3 Yrotation Xrotation Zrotation
  JOINT RightKnee
  {
   OFFSET 0.000000 -40.663400 -0.000500
   CHANNELS 3 Yrotation Xrotation Zrotation
   JOINT RightAnkle
   {
    OFFSET 0.000000 -39.523700 -0.000900
    CHANNELS 3 Yrotation Xrotation Zrotation
    JOINT RightToe
    {
     OFFSET 0.000000 -6.418000 14.485300
     CHANNELS 3 Yrotation Xrotation Zrotation
     End Site
     {
      OFFSET 0.000000 -1.465200 6.326400
     }
    }
   }
  }
 }
 JOINT LeftHip
 {
  OFFSET 7.797300 0.005300 0.000500
  CHANNELS 3 Yrotation Xrotation Zrotation
  JOINT LeftKnee
  {
   OFFSET 0.000000 -40.663400 -0.000500
   CHANNELS 3 Yrotation Xrotation Zrotation
   JOINT LeftAnkle
   {
    OFFSET 0.000000 -39.523700 -0.000900
    CHANNELS 3 Yrotation Xrotation Zrotation
    JOINT LeftToe
    {
     OFFSET 0.000000 -6.418000 14.485300
     CHANNELS 3 Yrotation Xrotation Zrotation
     End Site
     {
      OFFSET 0.000000 -1.465200 6.326400
     }
    }
   }
  }
 }
}
MOTION
Frames: 7
Frame Time: 0.008333
-15.428061 126.908377 19.750691 -169.893846 -49.590246 -4.972845 -0.354003 25.592335 1.381100 -0.106972 4.144932 0.222171 -0.139211 6.624180 0.370130 -0.346964 21.106727 1.123573 -2.914703 19.363531 1.408907 -3.441374 -5.203758 2.161721 2.089361 2.144361 3.995727 -4.587140 -8.031993 -13.816958 -112.927394 -67.481413 155.853510 11.903355 22.745720 3.347456 -8.257696 0.686600 -0.046816 2.666827 -10.212624 7.743576 74.925920 -66.266863 -112.397483 -1.137611 -1.540489 14.947846 -5.171027 -22.906899 0.169299 -6.923352 75.802371 -5.172861 8.599381 -6.953719 1.059588 -0.001044 -0.000749 -0.000462 1.527045 -20.109868 -3.668492 50.592954 81.573759 53.480742 5.912481 -13.327433 2.205739 0.002180 -0.001944 0.000966
-15.428048 126.907841 19.749896 -169.908378 -49.573868 -4.961501 -0.356397 25.577014 1.370115 -0.101243 4.141137 0.225314 -0.151751 6.603601 0.357037 -0.328696 21.125002 1.134202 -2.862320 19.413495 1.412964 -3.348766 -5.093605 2.158421 2.092953 2.138611 3.993373 -4.559889 -8.056299 -13.817685 -112.903015 -67.463751 155.851419 11.828292 22.664255 3.190890 -8.253223 0.611666 -0.062237 2.579505 -10.140687 7.740298 74.870785 -66.225251 -112.435072 -1.210943 -1.507852 14.832391 -5.163816 -22.916045 0.168832 -6.869170 75.814537 -5.098468 8.585926 -6.986796 1.015109 -0.001184 -0.002317 -0.000525 1.531822 -20.126040 -3.675312 50.620322 81.576453 53.508584 5.919630 -13.331642 2.204242 0.002660 -0.002488 0.001178
-15.427660 126.907850 19.748772 -169.921528 -49.562310 -4.953472 -0.357225 25.562725 1.362142 -0.095685 4.140443 0.229071 -0.152194 6.594580 0.353081 -0.334245 21.115867 1.128001 -2.805434 19.484161 1.419124 -3.290862 -5.010474 2.156046 2.114230 2.107599 3.981984 -4.545448 -8.039064 -13.808209 -112.868063 -67.446533 155.832213 11.753076 22.564340 3.030223 -8.242797 0.611383 -0.063028 2.535164 -10.124775 7.736245 74.815546 -66.171414 -112.519902 -1.293708 -1.468842 14.691816 -5.157771 -22.900832 0.182670 -6.882480 75.804963 -5.094342 8.581885 -7.070420 0.891224 -0.005907 -0.005122 -0.002617 1.532819 -20.135358 -3.692626 50.607887 81.596157 53.516650 5.953659 -13.342013 2.189040 0.007085 -0.000807 0.003139
-15.427841 126.906746 19.748780 -169.931190 -49.543148 -4.943574 -0.356411 25.543628 1.353612 -0.095734 4.133740 0.231102 -0.151641 6.591848 0.347373 -0.336264 21.102066 1.126987 -2.754053 19.562714 1.417517 -3.255288 -4.951624 2.155945 2.121424 2.100892 3.977429 -4.520199 -8.044789 -13.807687 -112.843581 -67.421934 155.825589 11.676834 22.457427 2.863496 -8.235116 0.610480 -0.065956 2.488974 -10.109717 7.735560 74.767361 -66.124537 -112.617631 -1.382707 -1.420578 14.534356 -5.155655 -22.893385 0.186861 -6.764796 75.800421 -4.954860 8.542303 -7.139506 0.806873 -0.005718 0.001638 -0.002533 1.529131 -20.154432 -3.712406 50.674471 81.594633 53.591111 5.963772 -13.346564 2.184727 0.006722 0.000793 0.002978
-15.428229 126.907213 19.747583 -169.935612 -49.537456 -4.937976 -0.356421 25.538349 1.347653 -0.098099 4.128281 0.219427 -0.147961 6.589826 0.352983 -0.333964 21.093666 1.118222 -2.712802 19.623748 1.423466 -3.212722 -4.887528 2.148292 2.122099 2.084535 3.978756 -4.495216 -8.050286 -13.806007 -112.787912 -67.411642 155.766585 11.613645 22.315467 2.712423 -8.245660 0.578050 -0.063612 2.402521 -10.093012 7.736938 74.700611 -66.097026 -112.647315 -1.471886 -1.360808 14.366834 -5.152692 -22.882433 0.179235 -6.452867 75.821541 -4.599645 8.439006 -7.217533 0.701532 -0.001687 -0.000613 -0.000748 1.523602 -20.161020 -3.730799 50.765698 81.588439 53.689975 5.964963 -13.347120 2.180914 0.005077 0.000480 0.002249
-15.428638 126.907231 19.746860 -169.938708 -49.529615 -4.933129 -0.357692 25.531285 1.341171 -0.097035 4.126030 0.218960 -0.147338 6.585904 0.350607 -0.337781 21.087340 1.109989 -2.667638 19.674730 1.422465 -3.171523 -4.832720 2.136804 2.125598 2.063449 3.971131 -4.470899 -8.057924 -13.800628 -112.783181 -67.373808 155.792768 11.530655 22.203168 2.520812 -8.259822 0.507665 -0.082391 2.237206 -10.089968 7.770390 74.590677 -66.069973 -112.555596 -1.558882 -1.292878 14.194559 -5.150434 -22.873139 0.183111 -6.318898 75.832854 -4.440041 8.374490 -7.304974 0.626704 -0.001678 -0.003475 -0.000744 1.512190 -20.172793 -3.746984 50.879989 81.579740 53.805917 5.960361 -13.346848 2.181710 0.002214 -0.001810 0.000981
-15.427764 126.907294 19.746091 -169.940593 -49.522837 -4.937052 -0.351547 25.524547 1.334763 -0.098240 4.123832 0.229089 -0.147109 6.586049 0.352355 -0.331666 21.072113 1.095574 -2.630963 19.722491 1.423886 -3.132218 -4.790285 2.124106 2.119396 2.063435 3.979040 -4.446820 -8.084734 -13.802184 -112.775794 -67.341262 155.823772 11.443650 22.079437 2.314083 -8.295760 0.454631 -0.088765 2.123102 -10.085826 7.810185 74.501050 -66.041357 -112.533474 -1.647188 -1.221563 14.021695 -5.149882 -22.855870 0.201991 -6.288855 75.830632 -4.395622 8.340554 -7.407054 0.579820 -0.002575 -0.004124 -0.001141 1.505934 -20.182172 -3.747828 50.942589 81.575303 53.872640 5.960784 -13.347684 2.176050 0.001758 -0.002525 0.000779
